<svg xmlns="http://www.w3.org/2000/svg" viewBox="0 0 200 200" width="200" height="200">
<path d="M41.0,24 L159.0,24 L159.0,106.5 C159.0,144.0 123.6,162.0 100,174 C76.4,162.0 41.0,144.0 41.0,106.5Z" fill="#F8E8CC" stroke="#33607F" stroke-width="7" stroke-linejoin="round"/>
<path d="M52.0,34 L148.0,34 L148.0,104.4 C148.0,136.4 119.2,151.76 100,162 C80.8,151.76 52.0,136.4 52.0,104.4Z" fill="none" stroke="#F0C070" stroke-width="2.5" stroke-dasharray="6 4"/>
<path d="M107.2,46.0 L83.2,90.8 L99.2,88.4 L92.0,126.0 L116.8,80.4 L100.8,82.8Z" fill="#F0C070" stroke="#E3A24F" stroke-width="2" stroke-linejoin="round"/>
<path d="M34,150 L58,144 L58,172 L34,178 L42,161Z" fill="#8E3A30"/>
<path d="M166,150 L142,144 L142,172 L166,178 L158,161Z" fill="#8E3A30"/>
<path d="M52,142 Q100,130 148,142 L148,168 Q100,156 52,168Z" fill="#B94F42"/>
<path d="M66.57421875 156.767578125 64.943359375 159.697265625Q62.12109375 158.271484375 60.431640625 157.392578125Q62.599609375 155.37109375 62.84375 154.55078125Q62.8828125 154.404296875 62.8828125 154.208984375Q62.8828125 153.28125 62.072265625 151.494140625Q61.26171875 149.70703125 60.9931640625 149.0380859375Q60.724609375 148.369140625 60.724609375 148.0078125Q60.724609375 147.646484375 60.841796875 147.3828125Q61.115234375 146.77734375 62.130859375 146.2744140625Q63.146484375 145.771484375 65.216796875 145.009765625Q65.509765625 145.693359375 65.646484375 146.03515625Q64.337890625 146.46484375 64.2109375 147.109375Q64.181640625 147.24609375 64.181640625 147.40234375Q64.181640625 147.958984375 64.552734375 148.720703125Q68.0 145.341796875 68.322265625 145.009765625Q69.19140625 145.5859375 69.8017578125 146.1083984375Q70.412109375 146.630859375 71.271484375 147.060546875L73.224609375 145.009765625Q74.396484375 145.64453125 75.578125 146.2744140625Q76.759765625 146.904296875 78.0390625 147.353515625Q76.466796875 148.427734375 76.37890625 150.99609375L76.271484375 154.62890625Q76.271484375 154.736328125 76.271484375 154.84375Q76.271484375 156.42578125 77.39453125 156.767578125L75.841796875 159.697265625Q74.42578125 159.1796875 73.8837890625 158.0908203125Q73.341796875 157.001953125 73.341796875 155.078125Q73.341796875 154.94140625 73.341796875 154.8046875L73.361328125 152.34375Q73.361328125 151.455078125 73.68359375 150.791015625Q74.005859375 150.126953125 74.5234375 149.453125Q72.560546875 148.017578125 71.583984375 147.900390625Q71.212890625 148.45703125 71.2080078125 149.21875Q71.203125 149.98046875 71.1640625 150.99609375L71.056640625 154.62890625Q71.056640625 154.736328125 71.056640625 154.84375Q71.056640625 156.611328125 71.984375 156.9140625L69.69921875 159.697265625Q69.171875 159.033203125 68.5078125 158.4375Q67.84375 157.841796875 67.2578125 157.34375Q67.55078125 157.001953125 67.833984375 156.26953125Q68.1171875 155.537109375 68.126953125 154.8046875L68.46875 148.759765625Q67.619140625 148.125 67.150390625 148.125Q67.033203125 148.125 66.935546875 148.1640625Q66.4765625 148.369140625 65.0703125 149.7265625L65.197265625 149.951171875Q65.9296875 151.318359375 65.9296875 152.216796875Q65.9296875 152.4609375 65.87109375 152.67578125Q65.607421875 153.662109375 64.015625 155.732421875Q64.93359375 156.396484375 66.57421875 156.767578125ZM85.9921875 156.767578125 84.361328125 159.697265625Q81.5390625 158.271484375 79.849609375 157.392578125Q82.017578125 155.37109375 82.26171875 154.55078125Q82.30078125 154.404296875 82.30078125 154.208984375Q82.30078125 153.28125 81.490234375 151.494140625Q80.6796875 149.70703125 80.4111328125 149.0380859375Q80.142578125 148.369140625 80.142578125 148.0078125Q80.142578125 147.646484375 80.259765625 147.3828125Q80.533203125 146.77734375 81.548828125 146.2744140625Q82.564453125 145.771484375 84.634765625 145.009765625Q84.927734375 145.693359375 85.064453125 146.03515625Q83.755859375 146.46484375 83.62890625 147.109375Q83.599609375 147.24609375 83.599609375 147.40234375Q83.599609375 147.958984375 83.970703125 148.720703125Q87.41796875 145.341796875 87.740234375 145.009765625Q88.609375 145.5859375 89.2197265625 146.1083984375Q89.830078125 146.630859375 90.689453125 147.060546875L92.642578125 145.009765625Q93.814453125 145.64453125 94.99609375 146.2744140625Q96.177734375 146.904296875 97.45703125 147.353515625Q95.884765625 148.427734375 95.796875 150.99609375L95.689453125 154.62890625Q95.689453125 154.736328125 95.689453125 154.84375Q95.689453125 156.42578125 96.8125 156.767578125L95.259765625 159.697265625Q93.84375 159.1796875 93.3017578125 158.0908203125Q92.759765625 157.001953125 92.759765625 155.078125Q92.759765625 154.94140625 92.759765625 154.8046875L92.779296875 152.34375Q92.779296875 151.455078125 93.1015625 150.791015625Q93.423828125 150.126953125 93.94140625 149.453125Q91.978515625 148.017578125 91.001953125 147.900390625Q90.630859375 148.45703125 90.6259765625 149.21875Q90.62109375 149.98046875 90.58203125 150.99609375L90.474609375 154.62890625Q90.474609375 154.736328125 90.474609375 154.84375Q90.474609375 156.611328125 91.40234375 156.9140625L89.1171875 159.697265625Q88.58984375 159.033203125 87.92578125 158.4375Q87.26171875 157.841796875 86.67578125 157.34375Q86.96875 157.001953125 87.251953125 156.26953125Q87.53515625 155.537109375 87.544921875 154.8046875L87.88671875 148.759765625Q87.037109375 148.125 86.568359375 148.125Q86.451171875 148.125 86.353515625 148.1640625Q85.89453125 148.369140625 84.48828125 149.7265625L84.615234375 149.951171875Q85.34765625 151.318359375 85.34765625 152.216796875Q85.34765625 152.4609375 85.2890625 152.67578125Q85.025390625 153.662109375 83.43359375 155.732421875Q84.3515625 156.396484375 85.9921875 156.767578125ZM102.958984375 155.5078125Q102.939453125 155.927734375 102.939453125 156.4599609375Q102.939453125 156.9921875 103.095703125 158.4375Q101.435546875 158.837890625 99.23828125 159.931640625Q100.087890625 156.3671875 103.564453125 151.220703125L103.6328125 151.11328125L102.578125 149.453125Q102.021484375 148.623046875 101.513671875 147.9296875Q101.2109375 147.529296875 100.703125 147.44140625Q100.1953125 147.353515625 99.6875 147.353515625Q100.3125 146.6015625 101.123046875 145.8935546875Q101.93359375 145.185546875 103.30078125 144.462890625Q104.013671875 145.771484375 104.267578125 146.23046875Q104.873046875 147.3046875 105.361328125 148.134765625L105.546875 148.4375L105.751953125 148.14453125Q106.103515625 147.685546875 106.4697265625 147.20703125Q106.8359375 146.728515625 107.2021484375 146.2744140625Q107.568359375 145.8203125 107.9345703125 145.361328125Q108.30078125 144.90234375 108.69140625 144.43359375Q109.150390625 144.619140625 109.58984375 144.8046875Q110.029296875 144.990234375 110.44921875 145.166015625Q111.40625 145.56640625 112.05078125 145.849609375L110.1953125 148.92578125Q108.96484375 147.79296875 107.75390625 147.392578125Q107.34375 147.841796875 107.0166015625 148.2470703125Q106.689453125 148.65234375 106.513671875 148.8623046875Q106.337890625 149.072265625 106.103515625 149.384765625L106.181640625 149.501953125Q107.83203125 152.314453125 109.951171875 155.244140625Q110.478515625 155.9765625 111.162109375 156.2890625Q111.513671875 156.494140625 111.982421875 156.572265625Q110.13671875 158.525390625 108.28125 159.990234375Q108.046875 159.521484375 107.8076171875 159.0478515625Q107.568359375 158.57421875 107.099609375 157.63671875Q105.4296875 154.267578125 104.43359375 152.48046875L104.228515625 152.119140625L104.0234375 152.48046875Q103.02734375 154.326171875 102.958984375 155.5078125ZM117.50390625 155.5078125Q117.484375 155.927734375 117.484375 156.4599609375Q117.484375 156.9921875 117.640625 158.4375Q115.98046875 158.837890625 113.783203125 159.931640625Q114.6328125 156.3671875 118.109375 151.220703125L118.177734375 151.11328125L117.123046875 149.453125Q116.56640625 148.623046875 116.05859375 147.9296875Q115.755859375 147.529296875 115.248046875 147.44140625Q114.740234375 147.353515625 114.232421875 147.353515625Q114.857421875 146.6015625 115.66796875 145.8935546875Q116.478515625 145.185546875 117.845703125 144.462890625Q118.55859375 145.771484375 118.8125 146.23046875Q119.41796875 147.3046875 119.90625 148.134765625L120.091796875 148.4375L120.296875 148.14453125Q120.6484375 147.685546875 121.0146484375 147.20703125Q121.380859375 146.728515625 121.7470703125 146.2744140625Q122.11328125 145.8203125 122.4794921875 145.361328125Q122.845703125 144.90234375 123.236328125 144.43359375Q123.6953125 144.619140625 124.134765625 144.8046875Q124.57421875 144.990234375 124.994140625 145.166015625Q125.951171875 145.56640625 126.595703125 145.849609375L124.740234375 148.92578125Q123.509765625 147.79296875 122.298828125 147.392578125Q121.888671875 147.841796875 121.5615234375 148.2470703125Q121.234375 148.65234375 121.05859375 148.8623046875Q120.8828125 149.072265625 120.6484375 149.384765625L120.7265625 149.501953125Q122.376953125 152.314453125 124.49609375 155.244140625Q125.0234375 155.9765625 125.70703125 156.2890625Q126.05859375 156.494140625 126.52734375 156.572265625Q124.681640625 158.525390625 122.826171875 159.990234375Q122.591796875 159.521484375 122.3525390625 159.0478515625Q122.11328125 158.57421875 121.64453125 157.63671875Q119.974609375 154.267578125 118.978515625 152.48046875L118.7734375 152.119140625L118.568359375 152.48046875Q117.572265625 154.326171875 117.50390625 155.5078125ZM131.47265625 144.53125Q131.150390625 144.970703125 131.150390625 145.400390625Q131.150390625 145.830078125 131.5703125 146.220703125Q132.5859375 147.158203125 132.966796875 148.232421875L136.052734375 144.74609375Q137.634765625 146.455078125 138.552734375 148.115234375Q139.470703125 149.775390625 139.470703125 151.455078125Q139.470703125 151.904296875 139.412109375 152.36328125Q139.197265625 153.90625 137.8984375 155.5615234375Q136.599609375 157.216796875 135.095703125 159.47265625Q133.630859375 158.623046875 128.796875 157.890625Q129.275390625 157.255859375 129.6953125 156.4453125Q130.115234375 155.634765625 130.154296875 154.619140625L130.26171875 151.30859375Q130.26171875 151.25 130.26171875 151.19140625Q130.26171875 149.912109375 129.265625 149.140625Q128.396484375 148.447265625 128.396484375 147.548828125Q128.396484375 146.953125 128.884765625 146.240234375L129.744140625 145.0Q130.134765625 144.4140625 130.759765625 144.4140625Q131.12109375 144.4140625 131.47265625 144.53125ZM134.98828125 148.80859375Q134.79296875 148.4375 134.4267578125 148.4375Q134.060546875 148.4375 133.19140625 149.3359375Q133.220703125 149.66796875 133.220703125 149.86328125Q133.220703125 150.05859375 133.220703125 150.13671875L133.015625 155.517578125L135.955078125 156.474609375Q136.8046875 155.595703125 136.8046875 154.296875Q136.8046875 153.779296875 136.677734375 153.203125Q136.19921875 151.15234375 134.98828125 148.80859375Z" fill="#F8E8CC"/>
</svg>
