<svg xmlns="http://www.w3.org/2000/svg" viewBox="0 0 200 200" width="200" height="200">
<path d="M42,16 L158,16 L184,42 L184,158 L158,184 L42,184 L16,158 L16,42Z" fill="#1F2630"/>
<path d="M42,16 L158,16 L184,42 L184,158 L158,184 L42,184 L16,158 L16,42Z" fill="none" stroke="#2F3A48" stroke-width="2"/>
<path d="M60,26 L40,26 L26,40 L26,60 M60,174 L40,174 L26,160 L26,140 M140,26 L160,26 L174,40 L174,60 M140,174 L160,174 L174,160 L174,140" fill="none" stroke="#F0455A" stroke-width="7" stroke-linejoin="round" stroke-linecap="square"/>
<path d="M82.4 87.776Q84.448 84.832 85.184 83.584Q85.92 82.336 86.176 81.056Q86.432 79.776 86.432 77.344V72.864Q86.432 70.88 84.96000000000001 69.472Q83.488 68.064 81.12 68.064H73.44V63.199999999999996H80.48Q86.048 63.199999999999996 89.024 65.92Q92.0 68.64 92.0 74.08V76.768Q92.0 79.968 91.55199999999999 81.952Q91.104 83.936 90.27199999999999 85.47200000000001Q89.44 87.008 87.52 89.75999999999999L78.048 103.136H93.28V108.0H72.16V102.368ZM118.752 108.0V98.016H105.568V92.512L112.416 63.199999999999996H117.6L111.072 93.344H118.752V78.752H124.19200000000001V93.344H128.992V98.016H124.19200000000001V108.0Z" fill="#F5F5F5"/>
<path d="M84.82799999999999 61.11V54.99Q84.82799999999999 53.545 85.61849999999998 52.822500000000005Q86.40899999999999 52.1 87.88799999999999 52.1H90.285V53.391999999999996H87.71799999999999Q87.08899999999998 53.391999999999996 86.69799999999998 53.766Q86.30699999999999 54.14 86.30699999999999 54.667V61.433Q86.30699999999999 61.96 86.69799999999998 62.334Q87.08899999999998 62.708 87.71799999999999 62.708H89.38399999999999V59.019H87.90499999999999V57.744H90.79499999999999V64.0H87.88799999999999Q86.40899999999999 64.0 85.61849999999998 63.2775Q84.82799999999999 62.555 84.82799999999999 61.11ZM100.204 64.0H99.779Q98.3 64.0 97.5095 63.2775Q96.719 62.555 96.719 61.11V52.1H98.198V61.433Q98.198 61.96 98.589 62.334Q98.97999999999999 62.708 99.609 62.708H100.374Q101.003 62.708 101.394 62.334Q101.785 61.96 101.785 61.433V52.1H103.264V61.11Q103.264 62.555 102.4735 63.2775Q101.68299999999999 64.0 100.204 64.0ZM111.432 62.759V53.341H109.902V52.1H114.441V53.341H112.911V62.759H114.441V64.0H109.902V62.759Z" fill="#8B94A1"/>
<path d="M84,124 L100,132 L116,124" fill="none" stroke="#F0455A" stroke-width="4.5" stroke-linecap="square"/>
<path d="M84,135 L100,143 L116,135" fill="none" stroke="#F0455A" stroke-width="4.5" stroke-linecap="square"/>
</svg>
